<?xml version="1.0" standalone="no"?>
<!DOCTYPE svg PUBLIC "-//W3C//DTD SVG 20010904//EN"
 "http://www.w3.org/TR/2001/REC-SVG-20010904/DTD/svg10.dtd">
<svg version="1.0" xmlns="http://www.w3.org/2000/svg"
 width="661.000000pt" height="115.000000pt" viewBox="0 0 661.000000 115.000000"
 preserveAspectRatio="xMidYMid meet">
<metadata>
Created by potrace 1.16, written by Peter Selinger 2001-2019
</metadata>
<g transform="translate(0.000000,115.000000) scale(0.100000,-0.100000)"
fill="#000000" stroke="none">
<path d="M1024 1118 c-11 -13 -44 -56 -73 -95 -29 -40 -66 -84 -82 -97 -25
-21 -29 -31 -28 -73 0 -26 3 -42 6 -35 2 6 9 10 14 6 5 -3 9 -1 9 4 0 5 30 10
67 11 36 1 69 2 72 3 22 2 31 -5 32 -24 1 -13 5 2 9 32 11 76 12 290 2 290 -5
0 -17 -10 -28 -22z"/>
<path d="M211 1113 c-48 -17 -137 -96 -127 -112 4 -6 20 -8 38 -4 20 4 29 3
25 -4 -15 -25 39 -37 151 -35 17 0 32 -4 32 -9 0 -22 18 -6 33 29 27 63 29 79
12 86 -9 3 -15 14 -13 23 1 10 -1 24 -5 31 -11 17 -92 14 -146 -5z"/>
<path d="M1517 940 c-132 -34 -212 -130 -237 -285 -36 -224 84 -408 281 -431
146 -17 286 69 318 196 12 46 20 166 12 177 -3 4 -70 7 -149 5 l-143 -4 3 -46
3 -47 83 -3 c93 -3 96 -6 62 -80 -15 -33 -29 -47 -62 -62 -96 -43 -199 -13
-253 75 -28 45 -30 55 -30 144 0 83 4 103 26 146 36 71 94 110 163 109 64 -1
109 -25 139 -74 11 -19 26 -38 31 -42 13 -9 110 -11 118 -2 4 3 0 25 -9 49
-21 62 -82 128 -143 154 -58 25 -157 35 -213 21z"/>
<path d="M4460 581 l0 -351 135 0 c198 0 259 16 341 92 85 78 117 247 75 388
-19 61 -31 82 -75 126 -72 72 -117 85 -318 91 l-158 6 0 -352z m307 237 c57
-14 114 -68 131 -124 6 -23 12 -77 12 -122 0 -68 -4 -88 -28 -133 -39 -76 -81
-97 -206 -105 l-96 -6 0 251 0 251 71 0 c38 0 91 -5 116 -12z"/>
<path d="M3792 750 c-30 -14 -47 -29 -55 -50 -16 -43 -27 -37 -27 15 l0 46
-57 -3 -58 -3 -2 -262 -2 -263 64 0 65 0 0 174 c0 173 0 175 26 205 28 33 77
52 118 44 l27 -6 -3 59 c-3 55 -5 59 -28 62 -14 1 -44 -7 -68 -18z"/>
<path d="M2095 741 c-95 -43 -153 -156 -142 -277 15 -161 126 -255 283 -241
35 4 76 13 92 21 53 28 116 105 98 123 -3 3 -25 8 -50 10 -40 5 -50 2 -81 -26
-66 -58 -170 -37 -206 42 -10 23 -19 48 -19 55 0 9 44 12 185 12 l185 0 0 48
c0 156 -92 252 -239 252 -42 0 -81 -7 -106 -19z m177 -91 c29 -23 53 -73 44
-95 -4 -12 -27 -15 -120 -15 -65 0 -117 4 -121 10 -10 17 26 78 58 99 42 27
106 27 139 1z"/>
<path d="M2510 495 l0 -265 60 0 60 0 0 158 c0 183 8 222 54 257 48 36 87 33
125 -10 36 -42 34 -25 35 -235 l1 -165 63 -3 63 -3 -3 208 c-3 188 -5 211 -24
243 -32 56 -77 80 -146 80 -73 0 -123 -22 -146 -64 l-17 -31 -3 48 -3 47 -60
0 -59 0 0 -265z"/>
<path d="M3171 734 c-97 -48 -135 -129 -129 -269 3 -70 7 -89 33 -131 46 -73
101 -106 189 -112 88 -5 146 10 192 50 31 28 71 86 62 93 -2 1 -29 5 -60 8
-43 4 -58 2 -62 -9 -9 -22 -68 -54 -102 -54 -68 0 -134 60 -134 123 l0 27 179
0 c134 0 180 3 184 13 11 31 -12 140 -40 185 -60 98 -200 132 -312 76z m177
-84 c29 -18 62 -71 62 -100 0 -6 -46 -10 -126 -10 l-126 0 6 32 c7 37 21 55
61 80 39 23 82 23 123 -2z"/>
<path d="M4046 746 c-44 -17 -94 -60 -107 -95 -12 -30 -10 -32 47 -42 45 -9
48 -7 85 26 30 27 48 35 77 35 60 0 106 -55 83 -99 -8 -14 -26 -21 -68 -26
-200 -23 -261 -69 -251 -190 7 -88 65 -136 166 -137 65 -1 109 17 141 58 l21
27 0 -37 0 -36 60 0 60 0 0 203 c0 191 -2 204 -23 241 -31 55 -84 80 -177 83
-47 2 -90 -2 -114 -11z m192 -321 c-5 -62 -21 -84 -78 -110 -43 -19 -76 -15
-108 12 -57 50 -18 115 79 128 29 4 63 11 74 16 35 14 38 10 33 -46z"/>
<path d="M5235 731 c-50 -22 -109 -86 -125 -136 -8 -23 -11 -70 -8 -124 7
-131 49 -197 153 -236 66 -26 161 -16 222 21 159 99 145 399 -21 475 -55 25
-167 25 -221 0z m183 -93 c36 -34 52 -79 52 -153 0 -111 -49 -175 -134 -175
-52 0 -101 46 -116 111 -15 62 -6 144 21 188 37 62 125 76 177 29z"/>
<path d="M5796 735 c-52 -18 -100 -67 -126 -128 -29 -67 -25 -200 8 -263 41
-79 115 -124 205 -124 100 0 183 45 213 117 24 56 20 63 -40 63 -49 0 -54 -2
-60 -25 -8 -31 -60 -65 -101 -65 -106 0 -172 158 -115 276 25 51 58 75 110 77
49 2 85 -18 101 -54 11 -27 15 -29 70 -29 l58 0 -16 45 c-17 52 -69 100 -123
115 -49 14 -138 12 -184 -5z"/>
<path d="M6291 735 c-77 -24 -120 -88 -107 -160 14 -73 66 -107 209 -135 33
-7 67 -20 78 -31 48 -48 -2 -109 -90 -109 -33 0 -47 7 -77 36 -34 34 -39 36
-82 30 -25 -3 -48 -8 -50 -11 -10 -10 23 -68 52 -89 45 -34 90 -46 166 -46 93
0 166 37 198 100 54 107 -6 173 -189 210 -63 12 -99 39 -99 75 0 40 36 65 93
65 42 0 53 -5 77 -30 28 -30 53 -36 98 -24 30 8 22 38 -23 81 -54 52 -159 68
-254 38z"/>
<path d="M1040 685 c-1 -22 -2 -48 -1 -57 2 -12 -4 -16 -18 -13 -12 2 -21 -1
-21 -8 0 -8 -3 -8 -9 2 -5 8 -11 9 -15 3 -10 -16 -69 -12 -89 6 -10 9 -18 12
-17 7 2 -6 1 -19 0 -30 -1 -14 -5 -10 -13 15 -10 31 -12 16 -18 -115 -4 -82
-7 -171 -8 -197 l-1 -48 -257 0 c-205 -1 -263 -4 -283 -15 l-25 -14 30 -1 c27
-1 28 -2 13 -14 -13 -9 -18 -29 -19 -75 -1 -40 -7 -65 -15 -68 -6 -2 -14 -13
-17 -23 -7 -26 41 -30 329 -30 278 0 320 8 386 77 70 74 82 110 85 273 4 135
-11 413 -17 325z"/>
<path d="M172 654 c-13 -9 -35 -13 -56 -10 -20 2 -38 1 -41 -4 -3 -4 -14 -6
-24 -3 -13 3 -21 -1 -24 -14 -9 -30 -20 -613 -12 -613 4 0 60 53 124 118 l116
117 -3 203 c-3 170 -6 203 -18 198 -8 -3 -14 -1 -14 3 0 17 -28 19 -48 5z"/>
</g>
</svg>
